<svg xmlns="http://www.w3.org/2000/svg" width="66.826" height="53.45" viewBox="0 0 66.826 53.45"><path d="M339.731,205.785c-10.041-5.6-13.951-1.225-14.838,6.555-2.308-14.965,2.4-20.622,10.782-16.828a39.811,39.811,0,0,1,9.928,6.5,9.285,9.285,0,0,0,6.271,2.3" transform="translate(-318.54 -193.131)" fill="#e1dfeb"/><path d="M420.522,204.316a9.926,9.926,0,0,0,6.313-2.381,42.587,42.587,0,0,1,10.069-6.423c8.391-3.794,13.11,1.863,10.8,16.828-1.046.741-2.07,1.492-3.151,2.312.1-2.357-.225-5.09-.261-7.148-.118-6.7-9.531-4.269-14.4,1.371-2.824,3.275,1.02,7.755,5.413,10.731a15.8,15.8,0,0,0,2.4.486c-1.775,1.452-3.814,3.138-6.244,5.154-3.052-2.866-6.957-6.54-10.861-9.988" transform="translate(-387.23 -193.131)" fill="#e1dfeb"/><path d="M351.954,204.318a9.9,9.9,0,0,1-6.225-2.38,42.549,42.549,0,0,0-10.055-6.422c-8.379-3.793-13.091,1.862-10.782,16.827,1.044.741,2.066,1.49,3.147,2.311-.1-2.357.226-5.089.26-7.149.117-6.7,9.518-4.268,14.372,1.37,2.821,3.276-1.018,7.756-5.4,10.731a15.958,15.958,0,0,1-2.4.486c1.771,1.453,3.808,3.138,6.234,5.155,3.049-2.867,6.951-6.544,10.851-9.993S351.954,204.318,351.954,204.318Z" transform="translate(-318.539 -193.134)" fill="#e1dfeb"/><path d="M433.317,302.028a23.157,23.157,0,0,0,9.027,10.423c9.576,4.733,15.138-2.629,12.71-10.541-1.09-3.55-5.17-10.574-11.515-13.159C441.946,288.1,431.554,297.8,433.317,302.028Zm4.347-7.011c.451-2.535,1.675-2.326,2.35-2.037,2.742,1.175,6.04,4.062,7.206,6.971,1.666,4.158-1.192,6.77-4.921,4.346C438.9,302.087,437.037,298.543,437.664,295.018Z" transform="translate(-396.221 -260.492)" fill="#e1dfeb"/><path d="M342.2,288.752c-6.345,2.585-10.425,9.609-11.514,13.159-2.428,7.911,3.133,15.274,12.71,10.541a23.156,23.156,0,0,0,9.027-10.423C354.183,297.8,343.792,288.1,342.2,288.752Zm1.239,15.547c-3.728,2.424-6.587-.189-4.92-4.346,1.166-2.91,4.465-5.8,7.206-6.971.675-.289,1.9-.5,2.35,2.037C348.7,298.543,346.84,302.087,343.438,304.3Z" transform="translate(-322.687 -260.492)" fill="#e1dfeb"/><path d="M353.839,192.425c18.3-6.337,7.492,26.119-16.279,26.119s-34.58-32.456-16.278-26.119c-19.947-10.362-25.117,15.6-1.2,29.8,7.105,4.219,14.264,11.99,4.773,19.775,6.011-2.992,7.5-8.4,12.706-8.4s6.7,5.409,12.706,8.4c-9.491-7.785-2.333-15.556,4.773-19.775C378.955,208.028,373.785,182.063,353.839,192.425Z" transform="translate(-304.147 -190.044)" fill="#fff"/></svg>